<svg width="64" height="64" viewBox="0 0 64 64" fill="none" xmlns="http://www.w3.org/2000/svg">
<rect width="64" height="64" rx="16" fill="white"/>
<path d="M21.9297 47.46V42.74L34.0097 32.02C34.9164 31.22 35.5564 30.4667 35.9297 29.76C36.303 29.0533 36.4897 28.3933 36.4897 27.78C36.4897 26.9 36.3097 26.12 35.9497 25.44C35.5897 24.7467 35.083 24.2067 34.4297 23.82C33.7764 23.42 33.0097 23.22 32.1297 23.22C31.2097 23.22 30.3964 23.4333 29.6897 23.86C28.9964 24.2733 28.4564 24.8267 28.0697 25.52C27.683 26.2 27.503 26.94 27.5297 27.74H21.9297C21.9297 25.7667 22.363 24.06 23.2297 22.62C24.0964 21.18 25.303 20.0667 26.8497 19.28C28.3964 18.4933 30.1964 18.1 32.2497 18.1C34.1297 18.1 35.8097 18.5133 37.2897 19.34C38.783 20.1533 39.9564 21.2933 40.8097 22.76C41.663 24.2267 42.0897 25.9267 42.0897 27.86C42.0897 29.2867 41.8897 30.4733 41.4897 31.42C41.0897 32.3533 40.4964 33.22 39.7097 34.02C38.923 34.8067 37.9564 35.7 36.8097 36.7L29.0097 43.54L28.5697 42.34H42.0897V47.46H21.9297Z" fill="#1D1F23"/>
</svg>
