<svg width="64" height="64" viewBox="0 0 64 64" fill="none" xmlns="http://www.w3.org/2000/svg">
<rect width="64" height="64" rx="16" fill="#F8F6F1"/>
<path d="M31.3836 48.02C29.9436 48.02 28.5703 47.7333 27.2636 47.16C25.9569 46.5733 24.8169 45.7533 23.8436 44.7C22.8836 43.6467 22.1969 42.4067 21.7836 40.98L27.0636 39.58C27.3436 40.6333 27.8903 41.4533 28.7036 42.04C29.5303 42.6133 30.4236 42.9 31.3836 42.9C32.2103 42.9 32.9636 42.7 33.6436 42.3C34.3369 41.9 34.8836 41.36 35.2836 40.68C35.6969 40 35.9036 39.2467 35.9036 38.42C35.9036 37.18 35.4769 36.12 34.6236 35.24C33.7836 34.3467 32.7036 33.9 31.3836 33.9C30.9836 33.9 30.5969 33.96 30.2236 34.08C29.8503 34.1867 29.4903 34.34 29.1436 34.54L26.7036 30.26L35.8636 22.66L36.2636 23.82H22.9036V18.7H40.9036V23.82L33.7836 30.7L33.7436 29.18C35.3969 29.4333 36.7903 30.0133 37.9236 30.92C39.0703 31.8133 39.9369 32.92 40.5236 34.24C41.1236 35.5467 41.4236 36.94 41.4236 38.42C41.4236 40.2333 40.9636 41.8667 40.0436 43.32C39.1236 44.76 37.9036 45.9067 36.3836 46.76C34.8636 47.6 33.1969 48.02 31.3836 48.02Z" fill="#1D1F23"/>
</svg>
