<svg width="75" height="75" viewBox="0 0 75 75" fill="none" xmlns="http://www.w3.org/2000/svg">
<path d="M28.9941 2.33105L28.4648 3.07836C39.1833 12.2218 56.3415 24.6622 56.3415 24.6622L55.6358 25.1458C54.7389 27.2119 54.0567 32.1265 58.5028 35.2564C62.949 38.3862 66.9717 36.5605 68.4273 35.2564L71.0297 36.4432L74.4702 33.2342L74.9995 31.9594L72.1765 29.8494C72.6029 28.3841 72.45 24.7326 68.4273 21.8489C64.4046 18.9651 60.4877 20.6473 59.0322 21.8489C59.0322 21.8489 35.6546 5.44888 28.9941 2.33105Z" fill="black"/>
<path d="M1.58682 17.1826L0.742188 18.3792C17.8461 33.0195 45.2262 52.9388 45.2262 52.9388L44.1001 53.7131C42.6689 57.0212 41.5802 64.8904 48.6752 69.9019C55.7701 74.9134 62.1893 71.99 64.5121 69.9019L68.6648 71.8023L74.155 66.6641L74.9996 64.6229L70.4949 61.2444C71.1753 58.8982 70.9313 53.0514 64.5121 48.4341C58.0928 43.8168 51.8426 46.5102 49.5198 48.4341C49.5198 48.4341 12.2152 22.1748 1.58682 17.1826Z" fill="black"/>
</svg>
