<svg width="480" height="480" viewBox="0 0 480 480" fill="none" xmlns="http://www.w3.org/2000/svg">
<path d="M472 360C473.051 360 474.091 359.794 475.062 359.392C476.033 358.99 476.915 358.4 477.657 357.657C478.4 356.915 478.99 356.033 479.392 355.062C479.794 354.091 480 353.051 480 352V40C479.988 29.3952 475.769 19.2282 468.271 11.7295C460.772 4.23072 450.605 0.0124493 440 0H40C29.3952 0.0124493 19.2282 4.23072 11.7295 11.7295C4.23072 19.2282 0.0124496 29.3952 2.70564e-07 40V64C-0.000273005 65.0507 0.206467 66.0911 0.608408 67.0618C1.01035 68.0325 1.59961 68.9145 2.34254 69.6575C3.08546 70.4004 3.96748 70.9897 4.93821 71.3916C5.90894 71.7935 6.94935 72.0003 8 72C14.3652 72 20.4697 74.5286 24.9706 79.0294C29.4714 83.5303 32 89.6348 32 96C32 102.365 29.4714 108.47 24.9706 112.971C20.4697 117.471 14.3652 120 8 120C6.94935 120 5.90894 120.206 4.93821 120.608C3.96748 121.01 3.08546 121.6 2.34254 122.343C1.59961 123.085 1.01035 123.967 0.608408 124.938C0.206467 125.909 -0.000273005 126.949 2.70564e-07 128V440C0.0124496 450.605 4.23072 460.772 11.7295 468.271C19.2282 475.769 29.3952 479.988 40 480H440C450.605 479.988 460.772 475.769 468.271 468.271C475.769 460.772 479.988 450.605 480 440V416C480 414.949 479.794 413.909 479.392 412.938C478.99 411.967 478.4 411.085 477.657 410.343C476.915 409.6 476.033 409.01 475.062 408.608C474.091 408.206 473.051 408 472 408C465.635 408 459.53 405.471 455.029 400.971C450.529 396.47 448 390.365 448 384C448 377.635 450.529 371.53 455.029 367.029C459.53 362.529 465.635 360 472 360ZM432 16H440C446.363 16.0069 452.464 18.5377 456.963 23.0371C461.462 27.5365 463.993 33.6369 464 40V48H451.312L432 28.6875V16ZM400 16H416V32C416.001 34.1215 416.844 36.156 418.344 37.656L442.344 61.656C443.087 62.3992 443.968 62.9887 444.939 63.3909C445.909 63.7931 446.949 64.0001 448 64H464V80H435.312L400 44.6875V16ZM80 464H64V448C63.9994 445.878 63.1563 443.844 61.656 442.344L37.656 418.344C36.9135 417.601 36.0318 417.011 35.0613 416.609C34.0908 416.207 33.0505 416 32 416H16V400H44.6875L80 435.312V464ZM16 440V432H28.6875L48 451.312V464H40C33.6369 463.993 27.5365 461.462 23.0371 456.963C18.5377 452.464 16.0069 446.363 16 440ZM464 423.195V440C463.993 446.363 461.462 452.464 456.963 456.963C452.464 461.462 446.363 463.993 440 464H216V426.961L262.07 373.207C263.317 371.759 264.002 369.911 264 368V304C264 301.878 263.157 299.843 261.657 298.343C260.157 296.843 258.122 296 256 296C253.878 296 251.843 296.843 250.343 298.343C248.843 299.843 248 301.878 248 304V365.039L201.93 418.793C200.683 420.241 199.998 422.089 200 424V464H184V418.961L230.07 365.207C231.317 363.759 232.002 361.911 232 360V304C232 301.878 231.157 299.843 229.657 298.343C228.157 296.843 226.122 296 224 296C221.878 296 219.843 296.843 218.343 298.343C216.843 299.843 216 301.878 216 304V357.039L169.93 410.793C168.683 412.241 167.998 414.089 168 416V464H152V410.961L198.07 357.207C199.317 355.759 200.002 353.911 200 352V304C200 301.878 199.157 299.843 197.657 298.343C196.157 296.843 194.122 296 192 296C189.878 296 187.843 296.843 186.343 298.343C184.843 299.843 184 301.878 184 304V349.039L137.93 402.793C136.683 404.241 135.998 406.089 136 408V464H96V432C95.9994 429.878 95.1563 427.844 93.656 426.344L53.656 386.344C52.9135 385.601 52.0318 385.011 51.0613 384.609C50.0908 384.207 49.0505 384 48 384H16V135.195C25.0337 133.35 33.1529 128.442 38.9839 121.3C44.815 114.157 47.9999 105.22 47.9999 96C47.9999 86.7798 44.815 77.8427 38.9839 70.7005C33.1529 63.5583 25.0337 58.6496 16 56.8047V40C16.0069 33.6369 18.5377 27.5365 23.0371 23.0371C27.5365 18.5377 33.6369 16.0069 40 16H264V53.039L217.93 106.793C216.683 108.241 215.998 110.089 216 112V176C216 178.122 216.843 180.157 218.343 181.657C219.843 183.157 221.878 184 224 184C226.122 184 228.157 183.157 229.657 181.657C231.157 180.157 232 178.122 232 176V114.961L278.07 61.207C279.317 59.759 280.002 57.911 280 56V16H296V61.039L249.93 114.793C248.683 116.241 247.998 118.089 248 120V176C248 178.122 248.843 180.157 250.343 181.657C251.843 183.157 253.878 184 256 184C258.122 184 260.157 183.157 261.657 181.657C263.157 180.157 264 178.122 264 176V122.961L310.07 69.207C311.317 67.759 312.002 65.911 312 64V16H328V69.039L281.93 122.793C280.683 124.241 279.998 126.089 280 128V176C280 178.122 280.843 180.157 282.343 181.657C283.843 183.157 285.878 184 288 184C290.122 184 292.157 183.157 293.657 181.657C295.157 180.157 296 178.122 296 176V130.961L342.07 77.207C343.317 75.759 344.002 73.911 344 72V16H384V48C384.001 50.1215 384.844 52.156 386.344 53.656L426.344 93.656C427.087 94.3992 427.968 94.9887 428.939 95.3909C429.909 95.7931 430.949 96.0001 432 96H464V344.805C454.966 346.65 446.847 351.558 441.016 358.7C435.185 365.843 432 374.78 432 384C432 393.22 435.185 402.157 441.016 409.3C446.847 416.442 454.966 421.35 464 423.195Z" fill="#302F2D"/>
<path d="M192 184C190.949 184 189.909 183.794 188.938 183.392C187.967 182.99 187.085 182.4 186.343 181.657C185.6 180.915 185.01 180.033 184.608 179.062C184.206 178.091 184 177.051 184 176V149.199L116.75 119.309C115.336 118.681 114.134 117.656 113.291 116.359C112.448 115.061 111.999 113.547 112 112V72C112 69.8783 112.843 67.8434 114.343 66.3431C115.843 64.8429 117.878 64 120 64C122.122 64 124.157 64.8429 125.657 66.3431C127.157 67.8434 128 69.8783 128 72V106.801L195.25 136.691C196.664 137.319 197.866 138.344 198.709 139.641C199.552 140.939 200.001 142.453 200 144V176C200 177.051 199.794 178.091 199.392 179.062C198.99 180.033 198.4 180.915 197.657 181.657C196.915 182.4 196.033 182.99 195.062 183.392C194.091 183.794 193.051 184 192 184Z" fill="#302F2D"/>
<path d="M96 360C94.9493 360 93.9089 359.794 92.9382 359.392C91.9675 358.99 91.0855 358.4 90.3425 357.657C89.5996 356.915 89.0103 356.033 88.6084 355.062C88.2065 354.091 87.9997 353.051 88 352V312C87.9999 310.758 88.2893 309.533 88.8453 308.422C89.4013 307.312 90.2086 306.346 91.2031 305.602L123.203 281.602C124.586 280.562 126.27 279.999 128 280H176C178.122 280 180.157 280.843 181.657 282.343C183.157 283.843 184 285.878 184 288C184 290.122 183.157 292.157 181.657 293.657C180.157 295.157 178.122 296 176 296H130.664L104 316V352C104 353.051 103.794 354.091 103.392 355.062C102.99 356.033 102.4 356.915 101.657 357.657C100.915 358.4 100.033 358.99 99.0618 359.392C98.0911 359.794 97.0507 360 96 360Z" fill="#302F2D"/>
<path d="M176 264H72C69.8783 264 67.8434 263.157 66.3431 261.657C64.8429 260.157 64 258.122 64 256C64 253.878 64.8429 251.843 66.3431 250.343C67.8434 248.843 69.8783 248 72 248H176C178.122 248 180.157 248.843 181.657 250.343C183.157 251.843 184 253.878 184 256C184 258.122 183.157 260.157 181.657 261.657C180.157 263.157 178.122 264 176 264Z" fill="#302F2D"/>
<path d="M176 232H112C110.27 232.001 108.586 231.438 107.203 230.398L75.2031 206.398C74.2086 205.654 73.4013 204.688 72.8453 203.578C72.2893 202.467 71.9999 201.242 72 200V160C72 157.878 72.8429 155.843 74.3431 154.343C75.8434 152.843 77.8783 152 80 152C82.1217 152 84.1566 152.843 85.6569 154.343C87.1571 155.843 88 157.878 88 160V196L114.664 216H176C178.122 216 180.157 216.843 181.657 218.343C183.157 219.843 184 221.878 184 224C184 226.122 183.157 228.157 181.657 229.657C180.157 231.157 178.122 232 176 232Z" fill="#302F2D"/>
<path d="M328 416C326.949 416 325.909 415.794 324.938 415.392C323.967 414.99 323.085 414.4 322.343 413.657C321.6 412.915 321.01 412.033 320.608 411.062C320.206 410.091 320 409.051 320 408V380.531L283.883 358.859C282.699 358.148 281.719 357.142 281.039 355.941C280.359 354.739 280.001 353.381 280 352V304C280 301.878 280.843 299.843 282.343 298.343C283.843 296.843 285.878 296 288 296C290.122 296 292.157 296.843 293.657 298.343C295.157 299.843 296 301.878 296 304V347.469L332.117 369.141C333.301 369.852 334.281 370.858 334.961 372.059C335.641 373.261 335.999 374.619 336 376V408C336 409.051 335.794 410.091 335.392 411.062C334.99 412.033 334.4 412.915 333.657 413.657C332.915 414.4 332.033 414.99 331.062 415.392C330.091 415.794 329.051 416 328 416Z" fill="#302F2D"/>
<path d="M176 200H144C142.42 199.999 140.876 199.532 139.562 198.656L115.562 182.656C113.819 181.469 112.616 179.643 112.212 177.574C111.809 175.504 112.239 173.36 113.408 171.606C114.578 169.851 116.392 168.63 118.457 168.206C120.523 167.783 122.672 168.192 124.437 169.344L146.421 184H176C178.121 184 180.156 184.843 181.656 186.343C183.157 187.843 184 189.878 184 192C184 194.122 183.157 196.157 181.656 197.657C180.156 199.157 178.121 200 176 200Z" fill="#302F2D"/>
<path d="M392 360C390.949 360 389.909 359.794 388.938 359.392C387.967 358.99 387.085 358.4 386.343 357.657C385.6 356.915 385.01 356.033 384.608 355.062C384.206 354.091 384 353.051 384 352V322.668L364 296H304C301.878 296 299.843 295.157 298.343 293.657C296.843 292.157 296 290.122 296 288C296 285.878 296.843 283.843 298.343 282.343C299.843 280.843 301.878 280 304 280H368C369.242 280 370.466 280.288 371.577 280.844C372.688 281.399 373.654 282.206 374.398 283.199L398.398 315.199C399.437 316.584 399.999 318.269 400 320V352C400 353.051 399.794 354.091 399.392 355.062C398.99 356.033 398.4 356.915 397.657 357.657C396.915 358.4 396.033 358.99 395.062 359.392C394.091 359.794 393.051 360 392 360Z" fill="#302F2D"/>
<path d="M408 264H304C301.878 264 299.843 263.157 298.343 261.657C296.843 260.157 296 258.122 296 256C296 253.878 296.843 251.843 298.343 250.343C299.843 248.843 301.878 248 304 248H408C410.122 248 412.157 248.843 413.657 250.343C415.157 251.843 416 253.878 416 256C416 258.122 415.157 260.157 413.657 261.657C412.157 263.157 410.122 264 408 264Z" fill="#302F2D"/>
<path d="M384 232H304C301.878 232 299.843 231.157 298.343 229.657C296.843 228.157 296 226.122 296 224C296 221.878 296.843 219.843 298.343 218.343C299.843 216.843 301.878 216 304 216H381.195L416 188.156V160C416 157.878 416.843 155.843 418.343 154.343C419.843 152.843 421.878 152 424 152C426.122 152 428.157 152.843 429.657 154.343C431.157 155.843 432 157.878 432 160V192C432.001 193.2 431.732 194.384 431.212 195.465C430.693 196.546 429.937 197.497 429 198.246L389 230.246C387.581 231.382 385.818 232.001 384 232Z" fill="#302F2D"/>
<path d="M360 200H304C301.878 200 299.843 199.157 298.343 197.657C296.843 196.157 296 194.122 296 192C296 189.878 296.843 187.843 298.343 186.343C299.843 184.843 301.878 184 304 184H352V136C352 133.878 352.843 131.843 354.343 130.343C355.843 128.843 357.878 128 360 128C362.122 128 364.157 128.843 365.657 130.343C367.157 131.843 368 133.878 368 136V192C368 193.051 367.794 194.091 367.392 195.062C366.99 196.033 366.4 196.915 365.657 197.657C364.915 198.4 364.033 198.99 363.062 199.392C362.091 199.794 361.051 200 360 200Z" fill="#302F2D"/>
<path d="M304 168H176C171.582 168 168 171.582 168 176V304C168 308.418 171.582 312 176 312H304C308.418 312 312 308.418 312 304V176C312 171.582 308.418 168 304 168Z" fill="#302F2D"/>
<path d="M208 200H192C189.878 200 187.843 199.157 186.343 197.657C184.843 196.157 184 194.122 184 192C184 189.878 184.843 187.843 186.343 186.343C187.843 184.843 189.878 184 192 184H208C210.122 184 212.157 184.843 213.657 186.343C215.157 187.843 216 189.878 216 192C216 194.122 215.157 196.157 213.657 197.657C212.157 199.157 210.122 200 208 200Z" fill="#302F2D"/>
<path d="M240 200C244.418 200 248 196.418 248 192C248 187.582 244.418 184 240 184C235.582 184 232 187.582 232 192C232 196.418 235.582 200 240 200Z" fill="#302F2D"/>
<path d="M96 392C109.255 392 120 381.255 120 368C120 354.745 109.255 344 96 344C82.7452 344 72 354.745 72 368C72 381.255 82.7452 392 96 392Z" fill="#302F2D"/>
<path d="M120 80C133.255 80 144 69.2548 144 56C144 42.7452 133.255 32 120 32C106.745 32 96 42.7452 96 56C96 69.2548 106.745 80 120 80Z" fill="#302F2D"/>
<path d="M328 448C341.255 448 352 437.255 352 424C352 410.745 341.255 400 328 400C314.745 400 304 410.745 304 424C304 437.255 314.745 448 328 448Z" fill="#302F2D"/>
<path d="M56 280C69.2548 280 80 269.255 80 256C80 242.745 69.2548 232 56 232C42.7452 232 32 242.745 32 256C32 269.255 42.7452 280 56 280Z" fill="#302F2D"/>
<path d="M80 168C93.2548 168 104 157.255 104 144C104 130.745 93.2548 120 80 120C66.7452 120 56 130.745 56 144C56 157.255 66.7452 168 80 168Z" fill="#302F2D"/>
<path d="M392 392C405.255 392 416 381.255 416 368C416 354.745 405.255 344 392 344C378.745 344 368 354.745 368 368C368 381.255 378.745 392 392 392Z" fill="#302F2D"/>
<path d="M424 280C437.255 280 448 269.255 448 256C448 242.745 437.255 232 424 232C410.745 232 400 242.745 400 256C400 269.255 410.745 280 424 280Z" fill="#302F2D"/>
<path d="M424 168C437.255 168 448 157.255 448 144C448 130.745 437.255 120 424 120C410.745 120 400 130.745 400 144C400 157.255 410.745 168 424 168Z" fill="#302F2D"/>
<path d="M360 144C373.255 144 384 133.255 384 120C384 106.745 373.255 96 360 96C346.745 96 336 106.745 336 120C336 133.255 346.745 144 360 144Z" fill="#302F2D"/>
</svg>
