<svg width="84" height="84" viewBox="0 0 84 84" fill="none" xmlns="http://www.w3.org/2000/svg">
<path d="M21.6958 21.686C24.9228 18.4592 31.0799 18.4271 38.1457 20.9292C44.6937 23.2481 56.7692 32.8134 63.8888 39.5875C58.7395 34.1999 51.3804 24.9741 49.5733 20.0101C47.6352 14.686 47.8911 10.3498 50.2853 7.95547C52.6795 5.56121 57.0158 5.30537 62.3399 7.24353C67.6641 9.18169 77.8909 17.5065 83.0263 22.6417C82.9602 22.589 65.3561 8.54876 58.1173 15.7875C51.3794 22.5257 63.0804 38.2435 64.7734 40.4389C65.0164 40.6761 65.2529 40.9088 65.4812 41.137C65.4812 41.137 42.1644 22.605 32.3894 32.3797C22.6145 42.1546 41.1461 65.4721 41.1461 65.4721C40.9387 65.2647 40.727 65.051 40.5121 64.8313C38.6257 63.3678 22.6076 51.2979 15.7876 58.1172C8.54601 65.3588 22.5992 82.9744 22.6411 83.0269C17.5059 77.8917 9.18125 67.6648 7.24291 62.3405C5.30474 57.0164 5.56128 52.6795 7.95554 50.2852C10.3499 47.8912 14.6862 47.6352 20.0102 49.5733C25.0422 51.4052 34.4526 58.943 39.8057 64.1C33.021 57.0116 23.2812 44.7526 20.9383 38.1366C18.436 31.0706 18.4687 24.9131 21.6958 21.686Z" fill="#1D1F23"/>
</svg>
