<svg width="84" height="75" viewBox="0 0 84 75" fill="none" xmlns="http://www.w3.org/2000/svg">
<g opacity="0.75">
<path d="M29.4223 24.9459C35.6074 18.761 44.9845 17.7964 51.8909 22.1368C51.4509 18.2469 52.7222 14.2 55.7054 11.2167C60.905 6.01711 69.3358 6.01667 74.5355 11.216L74.7752 11.4625C79.7339 16.6788 79.6541 24.9283 74.5355 30.0469L74.289 30.2865C70.2277 34.1469 64.3284 34.9527 59.4992 32.7047C60.9512 38.6588 59.2823 45.2985 54.5287 50.0523C49.7745 54.8064 43.1336 56.4761 37.179 55.0235C39.4735 59.9515 38.5886 65.9938 34.5219 70.0605L34.2753 70.3002C29.059 75.2584 20.8101 75.1783 15.6917 70.0599C10.4924 64.8601 10.4923 56.43 15.6917 51.2304C18.6753 48.2468 22.7228 46.9756 26.6132 47.4159C22.2719 40.5094 23.237 31.1313 29.4223 24.9459ZM59.948 15.4593C57.0918 18.3158 57.0919 22.947 59.948 25.8035C62.8045 28.6601 67.4363 28.6606 70.2929 25.8042C73.1495 22.9476 73.1495 18.3153 70.2929 15.4586C67.4363 12.6025 62.8045 12.6029 59.948 15.4593ZM19.9343 55.473C17.0781 58.3295 17.0782 62.9607 19.9343 65.8172C22.7909 68.6737 27.4226 68.6743 30.2792 65.8179C33.1358 62.9613 33.1358 58.3289 30.2792 55.4723C27.4226 52.6161 22.7908 52.6166 19.9343 55.473ZM33.6649 29.1885C28.7346 34.119 28.8051 41.7342 33.2727 46.2019C37.7404 50.6694 45.3556 50.7399 50.2861 45.8097C55.2162 40.8792 55.1464 33.2633 50.679 28.7956C46.2113 24.3281 38.5954 24.2583 33.6649 29.1885Z" fill="black"/>
</g>
</svg>
