<svg width="86" height="75" viewBox="0 0 86 75" fill="none" xmlns="http://www.w3.org/2000/svg">
<g opacity="0.75">
<path d="M30.6231 24.6738C37.0665 18.2307 46.9744 17.4518 53.9438 22.4351C53.76 21.5535 53.6628 20.6401 53.6628 19.704C53.663 12.3507 59.6244 6.38932 66.9777 6.38912C74.3309 6.38937 80.2923 12.3507 80.2925 19.704L80.2877 20.0472C80.1056 27.2419 74.2162 33.0186 66.9777 33.0189L66.6331 33.014C64.3589 32.9563 62.2265 32.3283 60.3734 31.2677C62.3588 37.5053 60.7957 44.7138 55.7295 49.7802C50.2932 55.2163 42.3902 56.6199 35.867 53.9331C39.1881 59.089 38.5937 66.035 34.0806 70.548L33.8341 70.7876C28.6177 75.7459 20.3688 75.6657 15.2504 70.5473C10.051 65.3476 10.051 56.9175 15.2504 51.7178C18.8942 48.0741 24.1245 46.9839 28.7179 48.4468C23.3689 41.4595 24.0394 31.2576 30.6231 24.6738ZM66.977 8.38959C60.7283 8.38991 55.6628 13.4554 55.6626 19.704C55.6626 21.884 56.2805 23.9195 57.3488 25.6467C57.7118 26.0955 58.0496 26.558 58.3612 27.0333C60.4365 29.4708 63.5256 31.019 66.9777 31.0191C73.2263 31.0188 78.2925 25.9527 78.2927 19.704C78.2925 13.4552 73.2258 8.38959 66.977 8.38959ZM32.0373 26.088C25.6276 32.4979 25.534 42.647 31.6451 48.7582C37.7563 54.8692 47.9054 54.7757 54.3153 48.366C59.9071 42.774 60.6914 34.3362 56.7432 28.2162C56.3758 27.7749 56.0362 27.3102 55.7275 26.8234C55.409 26.4346 55.0703 26.0571 54.7082 25.6951C48.5971 19.584 38.4473 19.6784 32.0373 26.088ZM16.6647 53.1321C12.2463 57.5507 12.2463 64.7145 16.6647 69.1331C21.0833 73.5517 28.2477 73.5522 32.6664 69.1338C37.0851 64.7151 37.0851 57.5501 32.6664 53.1314C28.2477 48.7129 21.0833 48.7134 16.6647 53.1321Z" fill="black"/>
</g>
</svg>
